<svg xmlns="http://www.w3.org/2000/svg" viewBox="0 0 252 252"><linearGradient id="a" gradientUnits="userSpaceOnUse" x1="564.019" y1="182.897" x2="401.415" y2="314.572" gradientTransform="rotate(-11 -333.769 2040.102)"><stop offset="0" stop-color="#333"/><stop offset=".322" stop-color="#27272b"/><stop offset=".91" stop-color="#060715"/><stop offset="1" stop-color="#000111"/></linearGradient><path d="M215.707 92.725c-6.391 8.3-18.155 7.514-20.74-5.784l-7.694-39.582c-1.056-5.435-5.847-8.534-11.285-7.477l-39.875 7.751c-13.298 2.585-18.44-8.043-13.135-17.073 8.735-14.867-1.08-33.323-21.628-30.212-20.215 4.81-22.408 25.566-8.739 36.081 8.302 6.388 7.525 18.198-5.773 20.783l-39.286 7.637c-5.435 1.056-9.124 5.804-8.068 11.239l7.694 39.582c2.585 13.298-7.705 18.371-16.735 13.066-14.867-8.735-33.127 1.042-30.014 21.589 4.81 20.215 25.316 22.456 35.831 8.785 6.389-8.297 17.911-7.464 20.496 5.832l7.694 39.582c1.056 5.435 6.394 9.171 11.829 8.114L115.562 205c13.299-2.585 18.357 7.633 13.053 16.666-8.735 14.867 1.036 33.094 21.583 29.983 20.214-4.812 22.466-25.265 8.795-35.78-8.298-6.392-7.452-17.863 5.846-20.448l39.875-7.751c5.438-1.057 8.58-6.441 7.523-11.876l-7.694-39.582c-2.585-13.299 7.942-18.415 16.969-13.112 14.867 8.735 33.17-1.051 30.06-21.598-4.812-20.213-25.353-22.445-35.865-8.777z" fill="url(#a)"/><path d="M128.602 87.536c-.392 2.28-1.553 4.209-3.508 5.49l-.901-4.633 2.098-2.779-2.98-1.758-.619-3.185c2.285-.611 3.563-2.629 3.156-4.721-.532-2.735-3.325-3.194-4.806-2.906-.322.063-.676.131-1.165.36l.025.129c.193-.038.476-.126.573-.145 1.03-.2 1.896.132 2.077 1.065.138.708-.304 1.528-1.334 1.728-2.542.494-5.935-.983-9.184-.352-2.896.563-4.472 3.106-4.046 5.294.419 2.156 1.811 2.62 3.224 2.846l.007-.135c-.468-.176-.845-.57-.983-1.278-.188-.965.557-1.945 1.683-2.164 2.735-.532 7.587.896 10.322.364l.257-.05.625 3.218-2.11 2.714 2.986 1.79.913 4.698c-.987.592-2.049.966-3.176 1.185-4.247.826-7.45-1.223-8.282-5.503-.2-1.03-.265-2.052-.163-3.074l1.942-1.346 1.839 9.46 3.943-2.736-1.883-9.685-5.788 4.064a7.051 7.051 0 0 1 2.764-4.678l-.051-.09c-4.066 1.759-7.559 5.777-6.621 10.603 1.082 5.566 6.53 8.515 12 7.451 5.792-1.126 8.323-5.625 7.261-11.262l-.095.021z" fill="#999"/><g fill="#27f2d5"><path d="M103.801 152.698l-10.018-15.492-3.982 7.323 2.04 10.494-12.329 2.398-9.986-51.369 12.55-2.44 5.747 29.574 9.438-18.056 12.329-2.396-8.448 14.13 16.381 23.166-13.722 2.668zM142.83 147.018c-.353 2.355-.964 4.311-1.827 5.877-.863 1.562-1.882 2.851-3.056 3.867a12.672 12.672 0 0 1-3.889 2.317c-1.42.53-2.863.938-4.331 1.223-.882.171-1.833.305-2.853.404a38.574 38.574 0 0 1-3.512.149l-1.699-8.733a24.77 24.77 0 0 0 2.024-.167 25.711 25.711 0 0 0 1.849-.279c2.398-.466 4.199-1.058 5.406-1.777 1.205-.717 1.653-1.882 1.337-3.496a5.573 5.573 0 0 0-.44-1.283 12.34 12.34 0 0 0-.661-1.245l-19.462-31.554 13.211-2.568 11.827 22.07 2.922-24.937 9.614-1.867-6.46 41.999zM181.021 138.185a39.977 39.977 0 0 1-3.853.94c-1.713.333-3.349.474-4.908.42-1.56-.05-2.972-.335-4.241-.851a8.248 8.248 0 0 1-3.233-2.339c-.89-1.044-1.496-2.402-1.819-4.066l-3.952-20.327-6.018 1.171-1.655-8.512 6.385-1.241-1.309-12.616 11.08-2.153 2.412 12.401 8.658-1.685 1.655 8.512-8.658 1.685 2.837 14.604c.229 1.175.488 2.114.777 2.817.289.705.685 1.239 1.185 1.6.504.357 1.108.544 1.825.556.713.016 1.608-.084 2.683-.293a15.69 15.69 0 0 0 1.741-.452c.62-.197 1.122-.357 1.506-.484l1.669 8.586c-1.98.789-3.569 1.367-4.767 1.727z"/></g></svg>
