<?xml version="1.0" encoding="utf-8"?>
<!-- Generator: Adobe Illustrator 20.0.0, SVG Export Plug-In . SVG Version: 6.00 Build 0)  -->
<svg version="1.1" id="Layer_1" xmlns="http://www.w3.org/2000/svg" xmlns:xlink="http://www.w3.org/1999/xlink" x="0px" y="0px"
	 viewBox="0 0 252 252" style="enable-background:new 0 0 252 252;" xml:space="preserve">
<g>
	
		<linearGradient id="SVGID_1_" gradientUnits="userSpaceOnUse" x1="564.019" y1="182.8973" x2="401.4146" y2="314.5718" gradientTransform="matrix(0.9816 -0.1908 0.1908 0.9816 -395.3833 -26.2032)">
		<stop  offset="0" style="stop-color:#333333"/>
		<stop  offset="0.3223" style="stop-color:#27272B"/>
		<stop  offset="0.91" style="stop-color:#060715"/>
		<stop  offset="1" style="stop-color:#000111"/>
	</linearGradient>
	<path style="fill:url(#SVGID_1_);" d="M215.707,92.725c-6.391,8.3-18.155,7.514-20.74-5.784l-7.694-39.582
		c-1.056-5.435-5.847-8.534-11.285-7.477l-39.875,7.751c-13.298,2.585-18.44-8.043-13.135-17.073
		c8.735-14.867-1.08-33.323-21.628-30.212c-20.215,4.81-22.408,25.566-8.739,36.081c8.302,6.388,7.525,18.198-5.773,20.783
		l-39.286,7.637c-5.435,1.056-9.124,5.804-8.068,11.239l7.694,39.582c2.585,13.298-7.705,18.371-16.735,13.066
		c-14.867-8.735-33.127,1.042-30.014,21.589c4.81,20.215,25.316,22.456,35.831,8.785c6.389-8.297,17.911-7.464,20.496,5.832
		l7.694,39.582c1.056,5.435,6.394,9.171,11.829,8.114L115.562,205c13.299-2.585,18.357,7.633,13.053,16.666
		c-8.735,14.867,1.036,33.094,21.583,29.983c20.214-4.812,22.466-25.265,8.795-35.78c-8.298-6.392-7.452-17.863,5.846-20.448
		l39.875-7.751c5.438-1.057,8.58-6.441,7.523-11.876l-7.694-39.582c-2.585-13.299,7.942-18.415,16.969-13.112
		c14.867,8.735,33.17-1.051,30.06-21.598C246.76,81.289,226.219,79.057,215.707,92.725z"/>
	<g>
		<g>
			<g>
				<path style="fill:#999999;" d="M128.602,87.536c-0.392,2.28-1.553,4.209-3.508,5.49l-0.901-4.633l2.098-2.779l-2.98-1.758
					l-0.619-3.185c2.285-0.611,3.563-2.629,3.156-4.721c-0.532-2.735-3.325-3.194-4.806-2.906c-0.322,0.063-0.676,0.131-1.165,0.36
					l0.025,0.129c0.193-0.038,0.476-0.126,0.573-0.145c1.03-0.2,1.896,0.132,2.077,1.065c0.138,0.708-0.304,1.528-1.334,1.728
					c-2.542,0.494-5.935-0.983-9.184-0.352c-2.896,0.563-4.472,3.106-4.046,5.294c0.419,2.156,1.811,2.62,3.224,2.846l0.007-0.135
					c-0.468-0.176-0.845-0.57-0.983-1.278c-0.188-0.965,0.557-1.945,1.683-2.164c2.735-0.532,7.587,0.896,10.322,0.364l0.257-0.05
					l0.625,3.218l-2.11,2.714l2.986,1.79l0.913,4.698c-0.987,0.592-2.049,0.966-3.176,1.185c-4.247,0.826-7.45-1.223-8.282-5.503
					c-0.2-1.03-0.265-2.052-0.163-3.074l1.942-1.346l1.839,9.46l3.943-2.736l-1.883-9.685l-5.788,4.064
					c0.281-1.991,1.337-3.599,2.764-4.678l-0.051-0.09c-4.066,1.759-7.559,5.777-6.621,10.603c1.082,5.566,6.53,8.515,12,7.451
					c5.792-1.126,8.323-5.625,7.261-11.262L128.602,87.536L128.602,87.536z"/>
			</g>
		</g>
	</g>
	<g>
		<g>
			<path style="fill:#27F2D5;" d="M103.801,152.698l-10.018-15.492l-3.982,7.323l2.04,10.494l-12.329,2.398l-9.986-51.369
				l12.55-2.44l5.747,29.574l9.438-18.056l12.329-2.396l-8.448,14.13l16.381,23.166L103.801,152.698z"/>
			<path style="fill:#27F2D5;" d="M142.83,147.018c-0.353,2.355-0.964,4.311-1.827,5.877c-0.863,1.562-1.882,2.851-3.056,3.867
				c-1.173,1.014-2.47,1.789-3.889,2.317c-1.42,0.53-2.863,0.938-4.331,1.223c-0.882,0.171-1.833,0.305-2.853,0.404
				c-1.024,0.096-2.193,0.147-3.512,0.149l-1.699-8.733c0.655-0.028,1.329-0.08,2.024-0.167c0.695-0.082,1.311-0.175,1.849-0.279
				c2.398-0.466,4.199-1.058,5.406-1.777c1.205-0.717,1.653-1.882,1.337-3.496c-0.076-0.392-0.223-0.819-0.44-1.283
				c-0.217-0.466-0.438-0.882-0.661-1.245l-19.462-31.554l13.211-2.568l11.827,22.07l2.922-24.937l9.614-1.867L142.83,147.018z"/>
			<path style="fill:#27F2D5;" d="M181.021,138.185c-1.201,0.361-2.484,0.673-3.853,0.94c-1.713,0.333-3.349,0.474-4.908,0.42
				c-1.56-0.05-2.972-0.335-4.241-0.851c-1.267-0.514-2.345-1.293-3.233-2.339c-0.89-1.044-1.496-2.402-1.819-4.066l-3.952-20.327
				l-6.018,1.171l-1.655-8.512l6.385-1.241l-1.309-12.616l11.08-2.153l2.412,12.401l8.658-1.685l1.655,8.512l-8.658,1.685
				l2.837,14.604c0.229,1.175,0.488,2.114,0.777,2.817c0.289,0.705,0.685,1.239,1.185,1.6c0.504,0.357,1.108,0.544,1.825,0.556
				c0.713,0.016,1.608-0.084,2.683-0.293c0.538-0.104,1.118-0.255,1.741-0.452c0.62-0.197,1.122-0.357,1.506-0.484l1.669,8.586
				C183.808,137.247,182.219,137.825,181.021,138.185z"/>
		</g>
	</g>
</g>
</svg>
