<?xml version="1.0" encoding="utf-8"?>
<!-- Generator: Adobe Illustrator 20.0.0, SVG Export Plug-In . SVG Version: 6.00 Build 0)  -->
<svg version="1.1" id="Layer_1" xmlns="http://www.w3.org/2000/svg" xmlns:xlink="http://www.w3.org/1999/xlink" x="0px" y="0px"
	 viewBox="0 0 120 120" style="enable-background:new 0 0 120 120;" xml:space="preserve">
<linearGradient id="SVGID_1_" gradientUnits="userSpaceOnUse" x1="463.8088" y1="196.8437" x2="386.3434" y2="259.574" gradientTransform="matrix(0.9816 -0.1908 0.1908 0.9816 -400.8461 -82.9769)">
	<stop  offset="0" style="stop-color:#333333"/>
	<stop  offset="0.3223" style="stop-color:#27272B"/>
	<stop  offset="0.91" style="stop-color:#060715"/>
	<stop  offset="1" style="stop-color:#000111"/>
</linearGradient>
<path style="fill:url(#SVGID_1_);" d="M102.744,44.155c-3.045,3.952-8.651,3.578-9.882-2.754l-3.666-18.849
	c-0.503-2.588-2.786-4.064-5.377-3.56l-19,3.691c-6.337,1.231-8.786-3.83-6.258-8.13c4.162-7.079-0.515-15.868-10.305-14.387
	c-9.632,2.29-10.677,12.174-4.164,17.181c3.956,3.042,3.586,8.666-2.751,9.897L22.62,30.88c-2.59,0.503-4.348,2.764-3.844,5.352
	l3.666,18.849c1.232,6.333-3.671,8.748-7.974,6.222C7.384,57.142-1.317,61.798,0.167,71.582c2.292,9.626,12.063,10.693,17.073,4.183
	c3.044-3.951,8.534-3.554,9.766,2.777l3.666,18.849c0.503,2.588,3.047,4.367,5.637,3.864l18.718-3.636
	c6.337-1.231,8.747,3.635,6.219,7.936c-4.162,7.079,0.493,15.759,10.284,14.278c9.632-2.292,10.705-12.031,4.191-17.038
	c-3.954-3.044-3.551-8.506,2.786-9.737l19-3.691c2.591-0.503,4.088-3.067,3.585-5.655l-3.666-18.849
	c-1.232-6.333,3.784-8.769,8.086-6.244c7.084,4.159,15.805-0.5,14.323-10.285C117.541,38.709,107.753,37.646,102.744,44.155z"/>
<g>
	<g>
		<path style="fill:#27F2D5;" d="M47.852,71.806l-5.086-7.865l-2.022,3.718l1.036,5.328l-6.259,1.217l-5.07-26.079l6.371-1.239
			l2.918,15.014l4.791-9.167l6.259-1.216l-4.289,7.174l8.317,11.761L47.852,71.806z"/>
		<path style="fill:#27F2D5;" d="M67.666,68.922c-0.179,1.196-0.489,2.189-0.928,2.984c-0.438,0.793-0.955,1.448-1.552,1.963
			c-0.595,0.515-1.254,0.908-1.975,1.176c-0.721,0.269-1.454,0.476-2.199,0.621c-0.448,0.087-0.931,0.155-1.449,0.205
			c-0.52,0.049-1.113,0.074-1.783,0.075l-0.862-4.434c0.332-0.014,0.675-0.041,1.028-0.085c0.353-0.042,0.666-0.089,0.939-0.142
			c1.217-0.237,2.132-0.537,2.744-0.902c0.612-0.364,0.839-0.955,0.679-1.775c-0.039-0.199-0.113-0.416-0.223-0.651
			c-0.11-0.237-0.222-0.448-0.335-0.632l-9.88-16.019l6.707-1.304l6.004,11.205l1.483-12.66l4.881-0.948L67.666,68.922z"/>
		<path style="fill:#27F2D5;" d="M87.055,64.438c-0.61,0.184-1.261,0.342-1.956,0.477c-0.87,0.169-1.7,0.241-2.491,0.213
			c-0.792-0.025-1.509-0.17-2.153-0.432c-0.643-0.261-1.191-0.657-1.641-1.188c-0.452-0.53-0.759-1.219-0.924-2.064l-2.006-10.32
			l-3.055,0.594l-0.84-4.321l3.242-0.63l-0.665-6.405l5.625-1.093l1.224,6.296l4.396-0.855l0.84,4.321l-4.396,0.855l1.44,7.414
			c0.116,0.596,0.248,1.073,0.395,1.43c0.147,0.358,0.348,0.629,0.601,0.812c0.256,0.181,0.563,0.276,0.927,0.282
			c0.362,0.008,0.817-0.043,1.362-0.149c0.273-0.053,0.568-0.129,0.884-0.229c0.315-0.1,0.57-0.181,0.765-0.246l0.847,4.359
			C88.47,63.962,87.663,64.255,87.055,64.438z"/>
	</g>
</g>
</svg>
